STARTFONT 2.1
COMMENT /*
COMMENT  * Spleen 16x32
COMMENT  * Copyright (c) 2018, Frederic Cambus
COMMENT  * https://www.cambus.net/
COMMENT  *
COMMENT  * Created:      2018-08-12
COMMENT  * Last Updated: 2018-08-12
COMMENT  *
COMMENT  * Spleen is released under the BSD 2-Clause license.
COMMENT  * See LICENSE file for details.
COMMENT  */
FONT "-misc-spleen-medium-r-normal--32-320-72-72-C-160-iso10646-1"
SIZE 22 75 75
FONTBOUNDINGBOX 16 32 0 -8
STARTPROPERTIES 16
FAMILY_NAME "Spleen"
FOUNDRY "misc"
SLANT "R"
SETWIDTH_NAME "Normal"
PIXEL_SIZE 32
POINT_SIZE 320
RESOLUTION_X 72
RESOLUTION_Y 72
SPACING "C"
AVERAGE_WIDTH 160
CHARSET_REGISTRY "ISO10646"
CHARSET_ENCODING "1"
FONT_ASCENT 24
FONT_DESCENT 8
COPYRIGHT "Copyright (c) 2018, Frederic Cambus"
DEFAULT_CHAR 0
ENDPROPERTIES
CHARS 96
STARTCHAR 0x0020
ENCODING 32
SWIDTH 698 0
DWIDTH 16 0
BBX 16 32 0 -8
BITMAP
0000
0000
0000
0000
0000
0000
0000
0000
0000
0000
0000
0000
0000
0000
0000
0000
0000
0000
0000
0000
0000
0000
0000
0000
0000
0000
0000
0000
0000
0000
0000
0000
ENDCHAR
STARTCHAR 0x0021
ENCODING 33
SWIDTH 698 0
DWIDTH 16 0
BBX 16 32 0 -8
BITMAP
0000
0000
0000
0000
0380
0380
0380
0380
0380
0380
0380
0380
0380
0380
0380
0380
0380
0380
0000
0000
0000
0380
0380
0380
0000
0000
0000
0000
0000
0000
0000
0000
ENDCHAR
STARTCHAR 0x0022
ENCODING 34
SWIDTH 698 0
DWIDTH 16 0
BBX 16 32 0 -8
BITMAP
0000
0000
3838
3838
3838
3838
3838
3838
3838
3838
0000
0000
0000
0000
0000
0000
0000
0000
0000
0000
0000
0000
0000
0000
0000
0000
0000
0000
0000
0000
0000
0000
ENDCHAR
STARTCHAR 0x0023
ENCODING 35
SWIDTH 698 0
DWIDTH 16 0
BBX 16 32 0 -8
BITMAP
0000
0000
0000
0000
3870
3870
3870
3870
FFFC
FFFC
3870
3870
3870
3870
3870
3870
3870
3870
FFFC
FFFC
3870
3870
3870
3870
0000
0000
0000
0000
0000
0000
0000
0000
ENDCHAR
STARTCHAR 0x004C
ENCODING 36
SWIDTH 698 0
DWIDTH 16 0
BBX 16 32 0 -8
BITMAP
0000
0000
0300
0300
1FF8
3FF8
7B00
7300
7300
7300
7300
7B00
3FE0
1FF0
0378
0338
0338
0338
0338
0338
0338
0378
7FF0
7FE0
0300
0300
0000
0000
0000
0000
0000
0000
ENDCHAR
STARTCHAR char47
ENCODING 37
SWIDTH 698 0
DWIDTH 16 0
BBX 16 32 0 -8
BITMAP
0000
0000
0000
0000
0000
0000
001C
001C
1C38
1C38
1C70
0070
00E0
00E0
01C0
01C0
0380
0380
0700
0700
0E00
0E38
1C38
1C38
3800
3800
0000
0000
0000
0000
0000
0000
ENDCHAR
STARTCHAR 0x0053
ENCODING 38
SWIDTH 698 0
DWIDTH 16 0
BBX 16 32 0 -8
BITMAP
0000
0000
0000
0000
0FC0
1FE0
3CF0
3870
3870
3870
3870
3CF0
1FE0
0FC0
3F00
7F00
F398
E1F8
E0F0
E0F0
E0F8
F1FC
7FDC
3F8C
0000
0000
0000
0000
0000
0000
0000
0000
ENDCHAR
STARTCHAR 0x0027
ENCODING 39
SWIDTH 698 0
DWIDTH 16 0
BBX 16 32 0 -8
BITMAP
0000
0000
0380
0380
0380
0380
0380
0380
0380
0380
0000
0000
0000
0000
0000
0000
0000
0000
0000
0000
0000
0000
0000
0000
0000
0000
0000
0000
0000
0000
0000
0000
ENDCHAR
STARTCHAR 0x005B
ENCODING 40
SWIDTH 698 0
DWIDTH 16 0
BBX 16 32 0 -8
BITMAP
0000
0000
00F0
03F0
0780
0E00
1C00
1C00
1800
3800
3800
3000
7000
7000
7000
7000
7000
7000
7000
7000
3800
3800
3800
1C00
1C00
1C00
0E00
0780
03F0
00F0
0000
0000
ENDCHAR
STARTCHAR 0x005B
ENCODING 41
SWIDTH 698 0
DWIDTH 16 0
BBX 16 32 0 -8
BITMAP
0000
0000
7800
7E00
0F00
0380
01C0
01C0
00C0
00E0
00E0
0060
0070
0070
0070
0070
0070
0070
0070
0070
00E0
00E0
00E0
01C0
01C0
01C0
0380
0F00
7E00
7800
0000
0000
ENDCHAR
STARTCHAR 0x002A
ENCODING 42
SWIDTH 698 0
DWIDTH 16 0
BBX 16 32 0 -8
BITMAP
0000
0000
0000
0000
0000
0000
0000
0000
0000
0000
1818
1C38
0E70
07E0
03C0
03C0
7FFE
7FFE
03C0
03C0
07E0
0E70
1C38
1818
0000
0000
0000
0000
0000
0000
0000
0000
ENDCHAR
STARTCHAR 0x002B
ENCODING 43
SWIDTH 698 0
DWIDTH 16 0
BBX 16 32 0 -8
BITMAP
0000
0000
0000
0000
0000
0000
0000
0000
0000
0000
0000
0000
0380
0380
0380
0380
3FF8
3FF8
0380
0380
0380
0380
0000
0000
0000
0000
0000
0000
0000
0000
0000
0000
ENDCHAR
STARTCHAR 0x002C
ENCODING 44
SWIDTH 698 0
DWIDTH 16 0
BBX 16 32 0 -8
BITMAP
0000
0000
0000
0000
0000
0000
0000
0000
0000
0000
0000
0000
0000
0000
0000
0000
0000
0000
0000
0000
0380
0380
0380
0780
0F00
0E00
0000
0000
0000
0000
0000
0000
ENDCHAR
STARTCHAR 0x002B
ENCODING 45
SWIDTH 698 0
DWIDTH 16 0
BBX 16 32 0 -8
BITMAP
0000
0000
0000
0000
0000
0000
0000
0000
0000
0000
0000
0000
0000
0000
0000
0000
3FFC
3FFC
0000
0000
0000
0000
0000
0000
0000
0000
0000
0000
0000
0000
0000
0000
ENDCHAR
STARTCHAR 0x002C
ENCODING 46
SWIDTH 698 0
DWIDTH 16 0
BBX 16 32 0 -8
BITMAP
0000
0000
0000
0000
0000
0000
0000
0000
0000
0000
0000
0000
0000
0000
0000
0000
0000
0000
0000
0000
0000
0380
0380
0380
0000
0000
0000
0000
0000
0000
0000
0000
ENDCHAR
STARTCHAR char47
ENCODING 47
SWIDTH 698 0
DWIDTH 16 0
BBX 16 32 0 -8
BITMAP
0000
0000
0000
000E
000E
001C
001C
0038
0038
0070
0070
00E0
00E0
01C0
01C0
0380
0380
0700
0700
0E00
0E00
1C00
1C00
3800
3800
7000
7000
E000
E000
0000
0000
0000
ENDCHAR
STARTCHAR 0x004C
ENCODING 48
SWIDTH 698 0
DWIDTH 16 0
BBX 16 32 0 -8
BITMAP
0000
0000
0000
0000
1FE0
3FF0
7878
7038
7038
7038
7078
70F8
71F8
73B8
7738
7E38
7C38
7838
7038
7038
7038
7878
3FF0
1FE0
0000
0000
0000
0000
0000
0000
0000
0000
ENDCHAR
STARTCHAR 0x004C
ENCODING 49
SWIDTH 698 0
DWIDTH 16 0
BBX 16 32 0 -8
BITMAP
0000
0000
0000
0000
0380
0780
0F80
1F80
3B80
3380
0380
0380
0380
0380
0380
0380
0380
0380
0380
0380
0380
0380
3FF8
3FF8
0000
0000
0000
0000
0000
0000
0000
0000
ENDCHAR
STARTCHAR 0x004C
ENCODING 50
SWIDTH 698 0
DWIDTH 16 0
BBX 16 32 0 -8
BITMAP
0000
0000
0000
0000
1FE0
3FF0
7878
7038
0038
0038
0038
0038
0070
00E0
01C0
0380
0700
0E00
1C00
3800
7038
7038
7FF8
7FF8
0000
0000
0000
0000
0000
0000
0000
0000
ENDCHAR
STARTCHAR 0x004C
ENCODING 51
SWIDTH 698 0
DWIDTH 16 0
BBX 16 32 0 -8
BITMAP
0000
0000
0000
0000
1FE0
3FF0
7878
7038
0038
0038
0038
0070
0FE0
0FE0
0070
0038
0038
0038
0038
0038
7038
7878
3FF0
1FE0
0000
0000
0000
0000
0000
0000
0000
0000
ENDCHAR
STARTCHAR 0x004C
ENCODING 52
SWIDTH 698 0
DWIDTH 16 0
BBX 16 32 0 -8
BITMAP
0000
0000
0000
0000
7000
7000
7000
7000
70E0
70E0
70E0
70E0
70E0
70E0
70E0
70E0
7FF8
7FF8
00E0
00E0
00E0
00E0
00E0
00E0
0000
0000
0000
0000
0000
0000
0000
0000
ENDCHAR
STARTCHAR 0x004C
ENCODING 53
SWIDTH 698 0
DWIDTH 16 0
BBX 16 32 0 -8
BITMAP
0000
0000
0000
0000
7FF8
7FF8
7038
7038
7000
7000
7000
7000
7FE0
7FF0
0078
0038
0038
0038
0038
0038
7038
7878
3FF0
1FE0
0000
0000
0000
0000
0000
0000
0000
0000
ENDCHAR
STARTCHAR 0x004C
ENCODING 54
SWIDTH 698 0
DWIDTH 16 0
BBX 16 32 0 -8
BITMAP
0000
0000
0000
0000
1FE0
3FF0
7878
7038
7000
7000
7000
7000
7FE0
7FF0
7078
7038
7038
7038
7038
7038
7038
7878
3FF0
1FE0
0000
0000
0000
0000
0000
0000
0000
0000
ENDCHAR
STARTCHAR 0x004C
ENCODING 55
SWIDTH 698 0
DWIDTH 16 0
BBX 16 32 0 -8
BITMAP
0000
0000
0000
0000
7FF8
7FF8
7038
7038
0038
0038
0038
0038
0070
00E0
01C0
0380
0700
0E00
0E00
0E00
0E00
0E00
0E00
0E00
0000
0000
0000
0000
0000
0000
0000
0000
ENDCHAR
STARTCHAR 0x004C
ENCODING 56
SWIDTH 698 0
DWIDTH 16 0
BBX 16 32 0 -8
BITMAP
0000
0000
0000
0000
1FE0
3FF0
7878
7038
7038
7038
7038
3870
1FE0
1FE0
3870
7038
7038
7038
7038
7038
7038
7878
3FF0
1FE0
0000
0000
0000
0000
0000
0000
0000
0000
ENDCHAR
STARTCHAR 0x004C
ENCODING 57
SWIDTH 698 0
DWIDTH 16 0
BBX 16 32 0 -8
BITMAP
0000
0000
0000
0000
1FE0
3FF0
7878
7038
7038
7038
7038
7038
7038
7838
3FF8
1FF8
0038
0038
0038
0038
7038
7878
3FF0
1FE0
0000
0000
0000
0000
0000
0000
0000
0000
ENDCHAR
STARTCHAR 0x002C
ENCODING 58
SWIDTH 698 0
DWIDTH 16 0
BBX 16 32 0 -8
BITMAP
0000
0000
0000
0000
0000
0000
0000
0000
0000
0000
0000
0380
0380
0380
0000
0000
0000
0000
0000
0000
0000
0380
0380
0380
0000
0000
0000
0000
0000
0000
0000
0000
ENDCHAR
STARTCHAR 0x002C
ENCODING 59
SWIDTH 698 0
DWIDTH 16 0
BBX 16 32 0 -8
BITMAP
0000
0000
0000
0000
0000
0000
0000
0000
0000
0000
0000
0380
0380
0380
0000
0000
0000
0000
0000
0000
0380
0380
0380
0780
0F00
0E00
0000
0000
0000
0000
0000
0000
ENDCHAR
STARTCHAR 0x003E
ENCODING 60
SWIDTH 698 0
DWIDTH 16 0
BBX 16 32 0 -8
BITMAP
0000
0000
0000
0000
001C
003C
0078
00F0
01E0
03C0
0780
0F00
1E00
3C00
7800
F000
F000
7800
3C00
1E00
0F00
0780
03C0
01E0
00F0
0078
003C
001C
0000
0000
0000
0000
ENDCHAR
STARTCHAR 0x002B
ENCODING 61
SWIDTH 698 0
DWIDTH 16 0
BBX 16 32 0 -8
BITMAP
0000
0000
0000
0000
0000
0000
0000
0000
0000
0000
0000
0000
3FFC
3FFC
0000
0000
0000
0000
3FFC
3FFC
0000
0000
0000
0000
0000
0000
0000
0000
0000
0000
0000
0000
ENDCHAR
STARTCHAR 0x003E
ENCODING 62
SWIDTH 698 0
DWIDTH 16 0
BBX 16 32 0 -8
BITMAP
0000
0000
0000
0000
E000
F000
7800
3C00
1E00
0F00
0780
03C0
01E0
00F0
0078
003C
003C
0078
00F0
01E0
03C0
0780
0F00
1E00
3C00
7800
F000
E000
0000
0000
0000
0000
ENDCHAR
STARTCHAR 0x0021
ENCODING 63
SWIDTH 698 0
DWIDTH 16 0
BBX 16 32 0 -8
BITMAP
0000
0000
0000
0000
1FE0
3FF0
7878
7038
0038
0038
0070
00E0
01C0
0380
0380
0700
0700
0700
0000
0000
0000
0700
0700
0700
0000
0000
0000
0000
0000
0000
0000
0000
ENDCHAR
STARTCHAR 0x004C
ENCODING 64
SWIDTH 698 0
DWIDTH 16 0
BBX 16 32 0 -8
BITMAP
0000
0000
0000
0000
0000
0000
0000
0000
3FF0
3FF0
F00C
F00C
F3CC
F3CC
F3CC
F3CC
F3CC
F3CC
F3FC
F3FC
F000
F000
3FF0
3FF0
0000
0000
0000
0000
0000
0000
0000
0000
ENDCHAR
STARTCHAR 0x004C
ENCODING 65
SWIDTH 698 0
DWIDTH 16 0
BBX 16 32 0 -8
BITMAP
0000
0000
0000
0000
1FE0
3FF0
7878
7038
7038
7038
7038
7038
7FF8
7FF8
7038
7038
7038
7038
7038
7038
7038
7038
7038
7038
0000
0000
0000
0000
0000
0000
0000
0000
ENDCHAR
STARTCHAR 0x004C
ENCODING 66
SWIDTH 698 0
DWIDTH 16 0
BBX 16 32 0 -8
BITMAP
0000
0000
0000
0000
7FE0
7FF0
7078
7038
7038
7038
7038
7070
7FE0
7FE0
7070
7038
7038
7038
7038
7038
7038
7078
7FF0
7FE0
0000
0000
0000
0000
0000
0000
0000
0000
ENDCHAR
STARTCHAR 0x004C
ENCODING 67
SWIDTH 698 0
DWIDTH 16 0
BBX 16 32 0 -8
BITMAP
0000
0000
0000
0000
1FF8
3FF8
7838
7038
7000
7000
7000
7000
7000
7000
7000
7000
7000
7000
7000
7000
7000
7800
3FF8
1FF8
0000
0000
0000
0000
0000
0000
0000
0000
ENDCHAR
STARTCHAR 0x004C
ENCODING 68
SWIDTH 698 0
DWIDTH 16 0
BBX 16 32 0 -8
BITMAP
0000
0000
0000
0000
7FE0
7FF0
7078
7038
7038
7038
7038
7038
7038
7038
7038
7038
7038
7038
7038
7038
7038
7078
7FF0
7FE0
0000
0000
0000
0000
0000
0000
0000
0000
ENDCHAR
STARTCHAR 0x004C
ENCODING 69
SWIDTH 698 0
DWIDTH 16 0
BBX 16 32 0 -8
BITMAP
0000
0000
0000
0000
1FF8
3FF8
7800
7000
7000
7000
7000
7000
7FC0
7FC0
7000
7000
7000
7000
7000
7000
7000
7800
3FF8
1FF8
0000
0000
0000
0000
0000
0000
0000
0000
ENDCHAR
STARTCHAR 0x004C
ENCODING 70
SWIDTH 698 0
DWIDTH 16 0
BBX 16 32 0 -8
BITMAP
0000
0000
0000
0000
1FF8
3FF8
7838
7038
7000
7000
7000
7000
7FC0
7FC0
7000
7000
7000
7000
7000
7000
7000
7000
7000
7000
0000
0000
0000
0000
0000
0000
0000
0000
ENDCHAR
STARTCHAR 0x004C
ENCODING 71
SWIDTH 698 0
DWIDTH 16 0
BBX 16 32 0 -8
BITMAP
0000
0000
0000
0000
1FF8
3FF8
7838
7038
7000
7000
7000
7000
71F8
71F8
7038
7038
7038
7038
7038
7038
7038
7838
3FF8
1FF8
0000
0000
0000
0000
0000
0000
0000
0000
ENDCHAR
STARTCHAR 0x004C
ENCODING 72
SWIDTH 698 0
DWIDTH 16 0
BBX 16 32 0 -8
BITMAP
0000
0000
0000
0000
7038
7038
7038
7038
7038
7038
7038
7038
7FF8
7FF8
7038
7038
7038
7038
7038
7038
7038
7038
7038
7038
0000
0000
0000
0000
0000
0000
0000
0000
ENDCHAR
STARTCHAR 0x004C
ENCODING 73
SWIDTH 698 0
DWIDTH 16 0
BBX 16 32 0 -8
BITMAP
0000
0000
0000
0000
3FF8
3FF8
0380
0380
0380
0380
0380
0380
0380
0380
0380
0380
0380
0380
0380
0380
0380
0380
3FF8
3FF8
0000
0000
0000
0000
0000
0000
0000
0000
ENDCHAR
STARTCHAR 0x004C
ENCODING 74
SWIDTH 698 0
DWIDTH 16 0
BBX 16 32 0 -8
BITMAP
0000
0000
0000
0000
3FF8
3FF8
0380
0380
0380
0380
0380
0380
0380
0380
0380
0380
0380
0380
0380
0380
0380
0780
7F00
7E00
0000
0000
0000
0000
0000
0000
0000
0000
ENDCHAR
STARTCHAR 0x004C
ENCODING 75
SWIDTH 698 0
DWIDTH 16 0
BBX 16 32 0 -8
BITMAP
0000
0000
0000
0000
7038
7038
7038
7038
7038
7038
7038
7070
7FE0
7FE0
7070
7038
7038
7038
7038
7038
7038
7038
7038
7038
0000
0000
0000
0000
0000
0000
0000
0000
ENDCHAR
STARTCHAR 0x004C
ENCODING 76
SWIDTH 698 0
DWIDTH 16 0
BBX 16 32 0 -8
BITMAP
0000
0000
0000
0000
7000
7000
7000
7000
7000
7000
7000
7000
7000
7000
7000
7000
7000
7000
7000
7000
7000
7800
3FF8
1FF8
0000
0000
0000
0000
0000
0000
0000
0000
ENDCHAR
STARTCHAR 0x004C
ENCODING 77
SWIDTH 698 0
DWIDTH 16 0
BBX 16 32 0 -8
BITMAP
0000
0000
0000
0000
7038
7878
7CF8
7FF8
7FF8
77B8
7338
7038
7038
7038
7038
7038
7038
7038
7038
7038
7038
7038
7038
7038
0000
0000
0000
0000
0000
0000
0000
0000
ENDCHAR
STARTCHAR 0x004C
ENCODING 78
SWIDTH 698 0
DWIDTH 16 0
BBX 16 32 0 -8
BITMAP
0000
0000
0000
0000
7038
7038
7038
7038
7838
7838
7C38
7C38
7638
7638
7338
7338
71B8
71B8
70F8
70F8
7078
7078
7038
7038
0000
0000
0000
0000
0000
0000
0000
0000
ENDCHAR
STARTCHAR 0x004C
ENCODING 79
SWIDTH 698 0
DWIDTH 16 0
BBX 16 32 0 -8
BITMAP
0000
0000
0000
0000
1FE0
3FF0
7878
7038
7038
7038
7038
7038
7038
7038
7038
7038
7038
7038
7038
7038
7038
7878
3FF0
1FE0
0000
0000
0000
0000
0000
0000
0000
0000
ENDCHAR
STARTCHAR 0x004C
ENCODING 80
SWIDTH 698 0
DWIDTH 16 0
BBX 16 32 0 -8
BITMAP
0000
0000
0000
0000
7FE0
7FF0
7078
7038
7038
7038
7038
7078
7FF0
7FE0
7000
7000
7000
7000
7000
7000
7000
7000
7000
7000
0000
0000
0000
0000
0000
0000
0000
0000
ENDCHAR
STARTCHAR 0x004C
ENCODING 81
SWIDTH 698 0
DWIDTH 16 0
BBX 16 32 0 -8
BITMAP
0000
0000
0000
0000
1FF8
3FF8
7838
7038
7038
7038
7038
7038
7038
7038
7038
7038
7038
7038
7338
7338
7338
7378
7FF0
7FE0
0300
0300
0300
0300
0000
0000
0000
0000
ENDCHAR
STARTCHAR 0x004C
ENCODING 82
SWIDTH 698 0
DWIDTH 16 0
BBX 16 32 0 -8
BITMAP
0000
0000
0000
0000
7FE0
7FF0
7078
7038
7038
7038
7038
7070
7FE0
7FE0
7070
7038
7038
7038
7038
7038
7038
7038
7038
7038
0000
0000
0000
0000
0000
0000
0000
0000
ENDCHAR
STARTCHAR 0x004C
ENCODING 83
SWIDTH 698 0
DWIDTH 16 0
BBX 16 32 0 -8
BITMAP
0000
0000
0000
0000
1FF8
3FF8
7800
7000
7000
7000
7000
7800
3FE0
1FF0
0078
0038
0038
0038
0038
0038
0038
0078
7FF0
7FE0
0000
0000
0000
0000
0000
0000
0000
0000
ENDCHAR
STARTCHAR 0x004C
ENCODING 84
SWIDTH 698 0
DWIDTH 16 0
BBX 16 32 0 -8
BITMAP
0000
0000
0000
0000
FFFE
FFFE
0380
0380
0380
0380
0380
0380
0380
0380
0380
0380
0380
0380
0380
0380
0380
0380
0380
0380
0000
0000
0000
0000
0000
0000
0000
0000
ENDCHAR
STARTCHAR 0x004C
ENCODING 85
SWIDTH 698 0
DWIDTH 16 0
BBX 16 32 0 -8
BITMAP
0000
0000
0000
0000
7038
7038
7038
7038
7038
7038
7038
7038
7038
7038
7038
7038
7038
7038
7038
7038
7038
7838
3FF8
1FF8
0000
0000
0000
0000
0000
0000
0000
0000
ENDCHAR
STARTCHAR 0x004C
ENCODING 86
SWIDTH 698 0
DWIDTH 16 0
BBX 16 32 0 -8
BITMAP
0000
0000
0000
0000
7038
7038
7038
7038
7038
7038
7038
7038
7038
7038
7038
7038
7038
7038
3870
3870
1CE0
0FC0
0780
0300
0000
0000
0000
0000
0000
0000
0000
0000
ENDCHAR
STARTCHAR 0x004C
ENCODING 87
SWIDTH 698 0
DWIDTH 16 0
BBX 16 32 0 -8
BITMAP
0000
0000
0000
0000
7038
7038
7038
7038
7038
7038
7038
7038
7038
7038
7038
7038
7038
7338
77B8
7FF8
7FF8
7CF8
7878
7038
0000
0000
0000
0000
0000
0000
0000
0000
ENDCHAR
STARTCHAR 0x004C
ENCODING 88
SWIDTH 698 0
DWIDTH 16 0
BBX 16 32 0 -8
BITMAP
0000
0000
0000
0000
7038
7038
7038
7038
7038
7038
3870
1CE0
0FC0
0FC0
1CE0
3870
7038
7038
7038
7038
7038
7038
7038
7038
0000
0000
0000
0000
0000
0000
0000
0000
ENDCHAR
STARTCHAR 0x004C
ENCODING 89
SWIDTH 698 0
DWIDTH 16 0
BBX 16 32 0 -8
BITMAP
0000
0000
0000
0000
7038
7038
7038
7038
7038
7038
7038
7838
3FF8
1FF8
0038
0038
0038
0038
0038
0038
0038
0078
7FF0
7FE0
0000
0000
0000
0000
0000
0000
0000
0000
ENDCHAR
STARTCHAR 0x004C
ENCODING 90
SWIDTH 698 0
DWIDTH 16 0
BBX 16 32 0 -8
BITMAP
0000
0000
0000
0000
7FF8
7FF8
0038
0038
0038
0038
0070
00E0
01C0
0380
0700
0E00
1C00
3800
7000
7000
7000
7000
7FF8
7FF8
0000
0000
0000
0000
0000
0000
0000
0000
ENDCHAR
STARTCHAR 0x005B
ENCODING 91
SWIDTH 698 0
DWIDTH 16 0
BBX 16 32 0 -8
BITMAP
0000
0000
3FF0
3FF0
3800
3800
3800
3800
3800
3800
3800
3800
3800
3800
3800
3800
3800
3800
3800
3800
3800
3800
3800
3800
3800
3800
3800
3800
3FF0
3FF0
0000
0000
ENDCHAR
STARTCHAR char47
ENCODING 92
SWIDTH 698 0
DWIDTH 16 0
BBX 16 32 0 -8
BITMAP
0000
0000
0000
E000
E000
7000
7000
3800
3800
1C00
1C00
0E00
0E00
0700
0700
0380
0380
01C0
01C0
00E0
00E0
0070
0070
0038
0038
001C
001C
000E
000E
0000
0000
0000
ENDCHAR
STARTCHAR 0x005B
ENCODING 93
SWIDTH 698 0
DWIDTH 16 0
BBX 16 32 0 -8
BITMAP
0000
0000
3FF0
3FF0
0070
0070
0070
0070
0070
0070
0070
0070
0070
0070
0070
0070
0070
0070
0070
0070
0070
0070
0070
0070
0070
0070
0070
0070
3FF0
3FF0
0000
0000
ENDCHAR
STARTCHAR 0x005E
ENCODING 94
SWIDTH 698 0
DWIDTH 16 0
BBX 16 32 0 -8
BITMAP
0000
0000
0300
0780
0FC0
1CE0
3870
7038
E01C
C00C
0000
0000
0000
0000
0000
0000
0000
0000
0000
0000
0000
0000
0000
0000
0000
0000
0000
0000
0000
0000
0000
0000
ENDCHAR
STARTCHAR 0x005F
ENCODING 95
SWIDTH 698 0
DWIDTH 16 0
BBX 16 32 0 -8
BITMAP
0000
0000
0000
0000
0000
0000
0000
0000
0000
0000
0000
0000
0000
0000
0000
0000
0000
0000
0000
0000
0000
0000
0000
0000
0000
0000
0000
0000
FFFC
FFFC
0000
0000
ENDCHAR
STARTCHAR 0x0060
ENCODING 96
SWIDTH 698 0
DWIDTH 16 0
BBX 16 32 0 -8
BITMAP
0000
0000
0C00
0E00
0700
0380
01C0
00C0
0000
0000
0000
0000
0000
0000
0000
0000
0000
0000
0000
0000
0000
0000
0000
0000
0000
0000
0000
0000
0000
0000
0000
0000
ENDCHAR
STARTCHAR 0x004C
ENCODING 97
SWIDTH 698 0
DWIDTH 16 0
BBX 16 32 0 -8
BITMAP
0000
0000
0000
0000
0000
0000
0000
0000
0000
0000
3FE0
3FF0
0078
0038
1FF8
3FF8
7838
7038
7038
7038
7038
7838
3FF8
1FF8
0000
0000
0000
0000
0000
0000
0000
0000
ENDCHAR
STARTCHAR 0x004C
ENCODING 98
SWIDTH 698 0
DWIDTH 16 0
BBX 16 32 0 -8
BITMAP
0000
0000
0000
0000
7000
7000
7000
7000
7000
7000
7FE0
7FF0
7078
7038
7038
7038
7038
7038
7038
7038
7038
7078
7FF0
7FE0
0000
0000
0000
0000
0000
0000
0000
0000
ENDCHAR
STARTCHAR 0x004C
ENCODING 99
SWIDTH 698 0
DWIDTH 16 0
BBX 16 32 0 -8
BITMAP
0000
0000
0000
0000
0000
0000
0000
0000
0000
0000
1FF8
3FF8
7838
7038
7000
7000
7000
7000
7000
7000
7000
7800
3FF8
1FF8
0000
0000
0000
0000
0000
0000
0000
0000
ENDCHAR
STARTCHAR 0x004C
ENCODING 100
SWIDTH 698 0
DWIDTH 16 0
BBX 16 32 0 -8
BITMAP
0000
0000
0000
0000
0038
0038
0038
0038
0038
0038
1FF8
3FF8
7838
7038
7038
7038
7038
7038
7038
7038
7038
7838
3FF8
1FF8
0000
0000
0000
0000
0000
0000
0000
0000
ENDCHAR
STARTCHAR 0x004C
ENCODING 101
SWIDTH 698 0
DWIDTH 16 0
BBX 16 32 0 -8
BITMAP
0000
0000
0000
0000
0000
0000
0000
0000
0000
0000
1FF8
3FF8
7838
7038
7038
7038
7FF8
7FF8
7000
7000
7000
7800
3FF8
1FF8
0000
0000
0000
0000
0000
0000
0000
0000
ENDCHAR
STARTCHAR 0x004C
ENCODING 102
SWIDTH 698 0
DWIDTH 16 0
BBX 16 32 0 -8
BITMAP
0000
0000
0000
0000
03F0
07F0
0F00
0E00
0E00
0E00
0E00
0E00
3FC0
3FC0
0E00
0E00
0E00
0E00
0E00
0E00
0E00
0E00
0E00
0E00
0000
0000
0000
0000
0000
0000
0000
0000
ENDCHAR
STARTCHAR 0x004C
ENCODING 103
SWIDTH 698 0
DWIDTH 16 0
BBX 16 32 0 -8
BITMAP
0000
0000
0000
0000
0000
0000
0000
0000
0000
0000
1FF8
3FF8
7838
7038
7038
7038
7038
7038
7038
7038
7038
7870
3FE0
1FE0
0070
0038
0038
0078
7FF0
7FE0
0000
0000
ENDCHAR
STARTCHAR 0x004C
ENCODING 104
SWIDTH 698 0
DWIDTH 16 0
BBX 16 32 0 -8
BITMAP
0000
0000
0000
0000
7000
7000
7000
7000
7000
7000
7FE0
7FF0
7078
7038
7038
7038
7038
7038
7038
7038
7038
7038
7038
7038
0000
0000
0000
0000
0000
0000
0000
0000
ENDCHAR
STARTCHAR 0x004C
ENCODING 105
SWIDTH 698 0
DWIDTH 16 0
BBX 16 32 0 -8
BITMAP
0000
0000
0000
0000
0380
0380
0380
0000
0000
0000
0380
0380
0380
0380
0380
0380
0380
0380
0380
0380
0380
0380
0380
0380
0000
0000
0000
0000
0000
0000
0000
0000
ENDCHAR
STARTCHAR 0x004C
ENCODING 106
SWIDTH 698 0
DWIDTH 16 0
BBX 16 32 0 -8
BITMAP
0000
0000
0000
0000
0380
0380
0380
0000
0000
0000
0380
0380
0380
0380
0380
0380
0380
0380
0380
0380
0380
0380
0380
0380
0380
0380
0380
0780
3F00
3E00
0000
0000
ENDCHAR
STARTCHAR 0x004C
ENCODING 107
SWIDTH 698 0
DWIDTH 16 0
BBX 16 32 0 -8
BITMAP
0000
0000
0000
0000
7000
7000
7000
7000
7000
7000
7060
70E0
71C0
7380
7700
7E00
7E00
7700
7380
71C0
70E0
7070
7038
7018
0000
0000
0000
0000
0000
0000
0000
0000
ENDCHAR
STARTCHAR 0x004C
ENCODING 108
SWIDTH 698 0
DWIDTH 16 0
BBX 16 32 0 -8
BITMAP
0000
0000
0000
0000
0E00
0E00
0E00
0E00
0E00
0E00
0E00
0E00
0E00
0E00
0E00
0E00
0E00
0E00
0E00
0E00
0E00
0F00
07F0
03F0
0000
0000
0000
0000
0000
0000
0000
0000
ENDCHAR
STARTCHAR 0x004C
ENCODING 109
SWIDTH 698 0
DWIDTH 16 0
BBX 16 32 0 -8
BITMAP
0000
0000
0000
0000
0000
0000
0000
0000
0000
0000
1CF8
3CF8
7B38
7338
7338
7338
7338
7338
7338
7338
7038
7038
7038
7038
0000
0000
0000
0000
0000
0000
0000
0000
ENDCHAR
STARTCHAR 0x004C
ENCODING 110
SWIDTH 698 0
DWIDTH 16 0
BBX 16 32 0 -8
BITMAP
0000
0000
0000
0000
0000
0000
0000
0000
0000
0000
1FF8
3FF8
7838
7038
7038
7038
7038
7038
7038
7038
7038
7038
7038
7038
0000
0000
0000
0000
0000
0000
0000
0000
ENDCHAR
STARTCHAR 0x004C
ENCODING 111
SWIDTH 698 0
DWIDTH 16 0
BBX 16 32 0 -8
BITMAP
0000
0000
0000
0000
0000
0000
0000
0000
0000
0000
1FE0
3FF0
7878
7038
7038
7038
7038
7038
7038
7038
7038
7878
3FF0
1FE0
0000
0000
0000
0000
0000
0000
0000
0000
ENDCHAR
STARTCHAR 0x004C
ENCODING 112
SWIDTH 698 0
DWIDTH 16 0
BBX 16 32 0 -8
BITMAP
0000
0000
0000
0000
0000
0000
0000
0000
0000
0000
7FE0
7FF0
7078
7038
7038
7038
7038
7038
7038
7038
7038
7078
7FF0
7FE0
7000
7000
7000
7000
7000
7000
0000
0000
ENDCHAR
STARTCHAR 0x004C
ENCODING 113
SWIDTH 698 0
DWIDTH 16 0
BBX 16 32 0 -8
BITMAP
0000
0000
0000
0000
0000
0000
0000
0000
0000
0000
1FF8
3FF8
7838
7038
7038
7038
7038
7038
7038
7038
7038
7838
3FF8
1FF8
0038
0038
0038
0038
0038
0038
0000
0000
ENDCHAR
STARTCHAR 0x004C
ENCODING 114
SWIDTH 698 0
DWIDTH 16 0
BBX 16 32 0 -8
BITMAP
0000
0000
0000
0000
0000
0000
0000
0000
0000
0000
1FF8
3FF8
7838
7038
7000
7000
7000
7000
7000
7000
7000
7000
7000
7000
0000
0000
0000
0000
0000
0000
0000
0000
ENDCHAR
STARTCHAR 0x004C
ENCODING 115
SWIDTH 698 0
DWIDTH 16 0
BBX 16 32 0 -8
BITMAP
0000
0000
0000
0000
0000
0000
0000
0000
0000
0000
1FF8
3FF8
7800
7000
7000
7800
7FE0
3FF0
0078
0038
0038
0078
7FF0
7FE0
0000
0000
0000
0000
0000
0000
0000
0000
ENDCHAR
STARTCHAR 0x004C
ENCODING 116
SWIDTH 698 0
DWIDTH 16 0
BBX 16 32 0 -8
BITMAP
0000
0000
0000
0000
0E00
0E00
0E00
0E00
0E00
0E00
3FC0
3FC0
0E00
0E00
0E00
0E00
0E00
0E00
0E00
0E00
0E00
0F00
07F0
03F0
0000
0000
0000
0000
0000
0000
0000
0000
ENDCHAR
STARTCHAR 0x004C
ENCODING 117
SWIDTH 698 0
DWIDTH 16 0
BBX 16 32 0 -8
BITMAP
0000
0000
0000
0000
0000
0000
0000
0000
0000
0000
7038
7038
7038
7038
7038
7038
7038
7038
7038
7038
7038
7838
3FF8
1FF8
0000
0000
0000
0000
0000
0000
0000
0000
ENDCHAR
STARTCHAR 0x004C
ENCODING 118
SWIDTH 698 0
DWIDTH 16 0
BBX 16 32 0 -8
BITMAP
0000
0000
0000
0000
0000
0000
0000
0000
0000
0000
7038
7038
7038
7038
7038
7038
7038
7038
3870
3870
1CE0
0FC0
0780
0300
0000
0000
0000
0000
0000
0000
0000
0000
ENDCHAR
STARTCHAR 0x004C
ENCODING 119
SWIDTH 698 0
DWIDTH 16 0
BBX 16 32 0 -8
BITMAP
0000
0000
0000
0000
0000
0000
0000
0000
0000
0000
7038
7038
7038
7038
7338
7338
7338
7338
7338
7338
7338
7B38
3CF8
1CF8
0000
0000
0000
0000
0000
0000
0000
0000
ENDCHAR
STARTCHAR 0x004C
ENCODING 120
SWIDTH 698 0
DWIDTH 16 0
BBX 16 32 0 -8
BITMAP
0000
0000
0000
0000
0000
0000
0000
0000
0000
0000
6018
7038
3870
1CE0
0FC0
0780
0780
0FC0
1CE0
3870
3870
7038
7038
7038
0000
0000
0000
0000
0000
0000
0000
0000
ENDCHAR
STARTCHAR 0x004C
ENCODING 121
SWIDTH 698 0
DWIDTH 16 0
BBX 16 32 0 -8
BITMAP
0000
0000
0000
0000
0000
0000
0000
0000
0000
0000
7038
7038
7038
7038
7038
7038
7038
7038
7038
7038
7038
7838
3FF8
1FF8
0038
0038
0038
0078
7FF0
7FE0
0000
0000
ENDCHAR
STARTCHAR 0x004C
ENCODING 122
SWIDTH 698 0
DWIDTH 16 0
BBX 16 32 0 -8
BITMAP
0000
0000
0000
0000
0000
0000
0000
0000
0000
0000
7FF8
7FF8
0038
0038
0070
00E0
01C0
0380
0700
0E00
1C00
3800
7FF8
7FF8
0000
0000
0000
0000
0000
0000
0000
0000
ENDCHAR
STARTCHAR 0x005B
ENCODING 123
SWIDTH 698 0
DWIDTH 16 0
BBX 16 32 0 -8
BITMAP
0000
0000
03F0
07F0
0F00
0E00
0E00
0E00
0E00
0E00
0E00
0E00
0E00
1E00
FC00
F800
F800
FC00
1E00
0E00
0E00
0E00
0E00
0E00
0E00
0E00
0E00
0F00
07F0
03F0
0000
0000
ENDCHAR
STARTCHAR 0x007C
ENCODING 124
SWIDTH 698 0
DWIDTH 16 0
BBX 16 32 0 -8
BITMAP
0000
0000
0000
0000
0380
0380
0380
0380
0380
0380
0380
0380
0380
0380
0380
0380
0380
0380
0380
0380
0380
0380
0380
0380
0380
0380
0380
0380
0000
0000
0000
0000
ENDCHAR
STARTCHAR 0x005B
ENCODING 125
SWIDTH 698 0
DWIDTH 16 0
BBX 16 32 0 -8
BITMAP
0000
0000
FC00
FE00
0F00
0700
0700
0700
0700
0700
0700
0700
0700
0780
03F0
01F0
01F0
03F0
0780
0700
0700
0700
0700
0700
0700
0700
0700
0F00
FE00
FC00
0000
0000
ENDCHAR
STARTCHAR 0x007E
ENCODING 126
SWIDTH 698 0
DWIDTH 16 0
BBX 16 32 0 -8
BITMAP
0000
0000
0F0C
0F0C
3FFC
3FFC
30F0
30F0
0000
0000
0000
0000
0000
0000
0000
0000
0000
0000
0000
0000
0000
0000
0000
0000
0000
0000
0000
0000
0000
0000
0000
0000
ENDCHAR
STARTCHAR 0x007F
ENCODING 127
SWIDTH 698 0
DWIDTH 16 0
BBX 16 32 0 -8
BITMAP
0000
0000
0000
0000
0000
0000
0000
0000
0000
0000
0000
0000
0000
0000
0000
0000
0000
0000
0000
0000
0000
0000
0000
0000
0000
0000
0000
0000
0000
0000
0000
0000
ENDCHAR
ENDFONT
